<svg width="60" height="86" viewBox="0 0 60 86" fill="none" xmlns="http://www.w3.org/2000/svg">
<path d="M0 16.1796C0 7.32274 7.22921 0.142883 16.147 0.142883H43.853C52.7708 0.142883 60 7.32274 60 16.1796C60 21.7877 57.1014 26.7237 52.7109 29.5899C57.1014 32.4563 60 37.3921 60 43.0004C60 51.8572 52.7708 59.0371 43.853 59.0371H43.5024C39.3218 59.0371 35.5121 57.4591 32.6446 54.8701V69.6463C32.6446 78.6212 25.2263 85.8572 16.234 85.8572C7.33849 85.8572 0 78.6992 0 69.8204C0 64.2125 2.89832 59.2769 7.28845 56.4105C2.89832 53.5441 0 48.6083 0 43.0004C0 37.3921 2.89858 32.4563 7.289 29.5899C2.89858 26.7237 0 21.7877 0 16.1796ZM27.3554 32.2166H16.147C10.1503 32.2166 5.28908 37.0447 5.28908 43.0004C5.28908 48.9331 10.1128 53.7468 16.0775 53.7839C16.1006 53.7838 16.1237 53.7838 16.147 53.7838H27.3554V32.2166ZM32.6446 43.0004C32.6446 48.956 37.5057 53.7841 43.5024 53.7841H43.853C49.8498 53.7841 54.7109 48.956 54.7109 43.0004C54.7109 37.0447 49.8498 32.2166 43.853 32.2166H43.5024C37.5057 32.2166 32.6446 37.0447 32.6446 43.0004ZM16.147 59.0371C16.1237 59.0371 16.1006 59.037 16.0775 59.037C10.1128 59.074 5.28908 63.8877 5.28908 69.8204C5.28908 75.7543 10.2152 80.6041 16.234 80.6041C22.3497 80.6041 27.3554 75.6762 27.3554 69.6463V59.0371H16.147ZM16.147 5.39586C10.1503 5.39586 5.28908 10.2239 5.28908 16.1796C5.28908 22.1353 10.1503 26.9632 16.147 26.9632H27.3554V5.39586H16.147ZM32.6446 26.9632H43.853C49.8498 26.9632 54.7109 22.1353 54.7109 16.1796C54.7109 10.2239 49.8498 5.39586 43.853 5.39586H32.6446V26.9632Z" fill="#262626"/>
</svg>
