<svg width="60" height="60" viewBox="0 0 60 60" fill="none" xmlns="http://www.w3.org/2000/svg">
<path d="M58.8682 27.3281L32.6786 1.13127C31.9536 0.406894 30.9706 0 29.9458 0C28.9209 0 27.938 0.406894 27.213 1.13127L21.7674 6.57288L28.6674 13.473C32.2915 12.2489 35.7227 15.719 34.4786 19.3231L41.1294 25.9741C45.7138 24.3937 49.3231 30.126 45.8799 33.5666C42.3321 37.1145 36.4768 33.1823 38.3799 28.5657L32.1723 22.366V38.6855C35.5607 40.365 35.1536 44.2905 33.3884 46.0517C32.526 46.9136 31.3566 47.3978 30.1373 47.3978C28.918 47.3978 27.7486 46.9136 26.8862 46.0517C24.5331 43.6945 25.4036 39.769 28.3929 38.5515V22.0781C25.6072 20.9383 25.0982 17.961 25.8964 16.0512L19.0942 9.24078L1.1318 27.2063C0.407112 27.9311 0 28.9141 0 29.9391C0 30.9641 0.407112 31.9471 1.1318 32.672L27.3295 58.8688C28.0543 59.5931 29.037 60 30.0616 60C31.0862 60 32.069 59.5931 32.7937 58.8688L58.8682 32.7939C59.5929 32.069 60 31.086 60 30.061C60 29.036 59.5929 28.053 58.8682 27.3281Z" fill="#262626"/>
</svg>
