<svg width="21" height="20" viewBox="0 0 21 20" fill="none" xmlns="http://www.w3.org/2000/svg">
<path d="M18.9047 0H1.75742C0.971706 0 0.333313 0.647322 0.333313 1.44196V18.558C0.333313 19.3527 0.971706 20 1.75742 20H18.9047C19.6905 20 20.3333 19.3527 20.3333 18.558V1.44196C20.3333 0.647322 19.6905 0 18.9047 0ZM6.37796 17.1429H3.41367V7.59821H6.38242V17.1429H6.37796ZM4.89581 6.29464C3.94492 6.29464 3.17706 5.52232 3.17706 4.57589C3.17706 3.62946 3.94492 2.85714 4.89581 2.85714C5.84224 2.85714 6.61456 3.62946 6.61456 4.57589C6.61456 5.52679 5.84671 6.29464 4.89581 6.29464V6.29464ZM17.4896 17.1429H14.5253V12.5C14.5253 11.3929 14.503 9.96875 12.9851 9.96875C11.4405 9.96875 11.2038 11.1741 11.2038 12.4196V17.1429H8.23956V7.59821H11.0833V8.90179H11.1235C11.5208 8.15179 12.4896 7.36161 13.9315 7.36161C16.9315 7.36161 17.4896 9.33929 17.4896 11.9107V17.1429V17.1429Z" fill="#262626"/>
</svg>
