<svg width="21" height="14" viewBox="0 0 21 14" fill="none" xmlns="http://www.w3.org/2000/svg">
<path d="M17.6667 0H2.66669C1.28583 0 0.166687 1.04453 0.166687 2.33333V11.6667C0.166687 12.9555 1.28583 14 2.66669 14H17.6667C19.0475 14 20.1667 12.9555 20.1667 11.6667V2.33333C20.1667 1.04453 19.0456 0 17.6667 0ZM2.66669 1.75H17.6667C18.0113 1.75 18.2917 2.0117 18.2917 2.33333V3.14125L11.7761 8.17615C10.8702 8.87906 9.45809 8.8787 8.55458 8.17671L2.04169 3.14271V2.33333C2.04169 2.0125 2.32216 1.75 2.66669 1.75ZM17.6667 12.25H2.66669C2.32208 12.25 2.04169 11.9883 2.04169 11.6667V5.42135L7.35809 9.55573C8.14716 10.1646 9.14325 10.5 10.1667 10.5C11.1901 10.5 12.1882 10.165 12.978 9.55281L18.2917 5.42135V11.6667C18.2917 11.9875 18.0104 12.25 17.6667 12.25Z" fill="#262626"/>
</svg>
