<svg width="60" height="74" viewBox="0 0 60 74" fill="none" xmlns="http://www.w3.org/2000/svg">
<path fill-rule="evenodd" clip-rule="evenodd" d="M54.025 58.4024L21.4942 68.0938C21.2676 68.1625 21.027 68.1713 20.7959 68.1193C20.5649 68.0672 20.3513 67.9562 20.176 67.7971C20.0007 67.6379 19.8697 67.4361 19.7958 67.2112C19.7219 66.9864 19.7076 66.7462 19.7543 66.5142L31.3779 10.4431C31.4271 10.2141 31.5468 10.0062 31.7203 9.84867C31.8938 9.69113 32.1123 9.59187 32.3452 9.56483C32.578 9.5378 32.8135 9.58434 33.0185 9.69793C33.2235 9.81152 33.3878 9.98644 33.4882 10.1981L55.0059 56.2337C55.1023 56.4384 55.1532 56.6616 55.155 56.8878C55.1568 57.1141 55.1094 57.338 55.0162 57.5442C54.9229 57.7504 54.786 57.9339 54.6149 58.082C54.4438 58.2302 54.2425 58.3395 54.025 58.4024ZM59.6047 56.1138L34.6959 2.81095C34.3898 2.1535 33.9101 1.59184 33.3085 1.18632C32.7069 0.780798 32.0061 0.546741 31.2814 0.509297C30.5566 0.459484 29.8322 0.610539 29.1878 0.945822C28.5434 1.2811 28.0042 1.7876 27.6295 2.40953L0.618254 46.511C0.206209 47.1786 -0.00807735 47.9491 0.000232846 48.7334C0.00854305 49.5177 0.23911 50.2836 0.665207 50.9423L13.8747 71.558C14.3725 72.3285 15.1066 72.9171 15.9672 73.2357C16.8277 73.5543 17.7684 73.5857 18.6483 73.3253L56.9935 61.9005C57.5727 61.7319 58.1084 61.4399 58.5637 61.0446C59.0191 60.6493 59.3832 60.16 59.6312 59.6105C59.8791 59.061 60.0049 58.4643 59.9999 57.8616C59.9948 57.2588 59.8591 56.6643 59.6021 56.119L59.6047 56.1138Z" fill="#262626"/>
</svg>
