<svg width="60" height="54" viewBox="0 0 60 54" fill="none" xmlns="http://www.w3.org/2000/svg">
<path d="M49.0078 17.8206C48.375 17.611 47.7422 17.413 47.1094 17.2267C47.2148 16.7958 47.3086 16.3649 47.4023 15.9341C48.8438 8.99343 47.8945 3.41532 44.6953 1.57535C41.6133 -0.183093 36.5859 1.64523 31.5 6.04716C30.9961 6.47804 30.5039 6.93221 30.0352 7.38638C29.7187 7.0836 29.3906 6.78082 29.0625 6.48969C23.7305 1.78497 18.3867 -0.194739 15.1875 1.65687C12.1172 3.42696 11.2031 8.67901 12.4922 15.247C12.6211 15.8991 12.7617 16.5396 12.9258 17.1918C12.1758 17.4014 11.4375 17.6343 10.7461 17.8788C4.48828 20.0332 0 23.4337 0 26.9506C0 30.5839 4.78125 34.2289 11.2852 36.4415C11.8125 36.6162 12.3398 36.7909 12.8789 36.9423C12.7031 37.641 12.5508 38.328 12.4102 39.0384C11.1797 45.5016 12.1406 50.6255 15.2109 52.384C18.375 54.2006 23.6953 52.3374 28.875 47.8306C29.2852 47.4696 29.6953 47.097 30.1055 46.701C30.6211 47.2018 31.1602 47.6793 31.6992 48.1451C36.7148 52.4306 41.6719 54.1657 44.7305 52.4073C47.8945 50.5906 48.9258 45.0823 47.5898 38.3746C47.4844 37.8622 47.3672 37.3382 47.2383 36.8025C47.6133 36.6977 47.9766 36.5812 48.3398 36.4648C55.1016 34.2405 60 30.6421 60 26.9506C60 23.422 55.3828 19.9983 49.0078 17.8206ZM33.1523 7.93371C37.5117 4.16062 41.5781 2.68166 43.4297 3.74139C45.4102 4.87098 46.1719 9.43596 44.9297 15.4333C44.8477 15.8293 44.7656 16.2135 44.6602 16.5978C42.0586 16.0156 39.4219 15.5963 36.7734 15.3634C35.25 13.1974 33.5859 11.1245 31.7813 9.17976C32.2383 8.74888 32.6836 8.3413 33.1523 7.93371ZM19.5938 32.9945C20.1914 34.0076 20.8008 35.0208 21.4453 36.0106C19.6172 35.8127 17.8008 35.5215 16.0078 35.1372C16.5234 33.4603 17.168 31.7251 17.918 29.955C18.457 30.9798 19.0078 31.993 19.5938 32.9945ZM16.043 18.9851C17.7305 18.6125 19.5234 18.3097 21.3867 18.0768C20.7656 19.0434 20.1562 20.0332 19.582 21.0347C19.0078 22.0246 18.4453 23.0377 17.918 24.0625C17.1797 22.3274 16.5586 20.6271 16.043 18.9851ZM19.2539 27.0088C20.0273 25.4017 20.8711 23.8296 21.7617 22.2808C22.6523 20.7319 23.6133 19.2297 24.6211 17.7507C26.3789 17.6226 28.1719 17.5528 30 17.5528C31.8281 17.5528 33.6328 17.6226 35.3789 17.7507C36.375 19.218 37.3242 20.7203 38.2266 22.2575C39.1289 23.7947 39.9727 25.3668 40.7695 26.9622C39.9844 28.5693 39.1406 30.153 38.2383 31.7135C37.3477 33.2623 36.3984 34.7646 35.4023 36.2552C33.6562 36.3833 31.8398 36.4415 30 36.4415C28.1602 36.4415 26.3789 36.3833 24.6562 36.2785C23.6367 34.7995 22.6758 33.2856 21.7734 31.7368C20.8711 30.188 20.0391 28.6158 19.2539 27.0088ZM40.418 32.9712C41.0156 31.9464 41.5781 30.91 42.1289 29.8619C42.8789 31.5505 43.5352 33.2623 44.1094 35.0208C42.293 35.4284 40.4531 35.7428 38.6016 35.9524C39.2344 34.9742 39.832 33.9727 40.418 32.9712ZM42.1055 24.0625C41.5547 23.0377 40.9922 22.0129 40.4062 21.0114C39.832 20.0216 39.2344 19.0434 38.6133 18.0768C40.5 18.3097 42.3047 18.6241 43.9922 19.0084C43.4531 20.7319 42.8203 22.4089 42.1055 24.0625ZM30.0234 10.9615C31.2539 12.2891 32.4141 13.6865 33.4922 15.1305C31.1719 15.0257 28.8398 15.0257 26.5195 15.1305C27.668 13.6283 28.8516 12.2308 30.0234 10.9615ZM16.4297 3.8229C18.3984 2.68166 22.7695 4.31201 27.375 8.36459C27.668 8.62078 27.9609 8.90027 28.2656 9.17976C26.4492 11.1245 24.7734 13.1974 23.2383 15.3634C20.5898 15.5963 17.9648 16.0039 15.3633 16.5746C15.2109 15.9806 15.082 15.3751 14.9531 14.7695C13.8516 9.13318 14.5781 4.88263 16.4297 3.8229ZM13.5586 34.52C13.0664 34.3803 12.5859 34.2289 12.1055 34.0659C9.60938 33.2856 6.77344 32.0512 4.72266 30.4325C3.53906 29.6173 2.74219 28.3596 2.51953 26.9506C2.51953 24.8195 6.22266 22.0944 11.5664 20.2428C12.2344 20.0099 12.9141 19.8003 13.5938 19.6023C14.3906 22.1294 15.3516 24.6098 16.4648 27.0088C15.3398 29.4427 14.3672 31.958 13.5586 34.52ZM27.2227 45.9325C25.2891 47.6909 23.0508 49.0883 20.6133 50.0433C19.3125 50.6605 17.8125 50.7187 16.4766 50.1947C14.6133 49.1233 13.8398 45.0125 14.8945 39.4809C15.0234 38.8288 15.1641 38.1767 15.3281 37.5362C17.9531 38.0951 20.6016 38.4794 23.2852 38.6774C24.832 40.8551 26.5312 42.9396 28.3477 44.896C27.9727 45.257 27.5977 45.6064 27.2227 45.9325ZM30.0937 43.1026C28.8984 41.8216 27.7031 40.4009 26.543 38.8754C27.668 38.922 28.8281 38.9453 30 38.9453C31.207 38.9453 32.3906 38.922 33.5625 38.8637C32.4844 40.3427 31.3242 41.7518 30.0937 43.1026ZM45.4102 46.5962C45.3047 48.017 44.6016 49.3445 43.4766 50.2412C41.6133 51.3126 37.6406 49.9152 33.3516 46.2585C32.8594 45.8393 32.3672 45.3851 31.8633 44.9193C33.6562 42.9512 35.3086 40.8667 36.8086 38.6774C39.4922 38.4561 42.1641 38.0486 44.8008 37.4546C44.918 37.9321 45.0234 38.4096 45.1172 38.8754C45.6914 41.3908 45.7852 44.011 45.4102 46.5962ZM47.543 34.0775C47.2148 34.1823 46.8867 34.2871 46.5469 34.3803C45.7266 31.8416 44.7188 29.3611 43.5586 26.9506C44.6836 24.5749 45.6328 22.1294 46.4297 19.6256C47.0391 19.8003 47.625 19.9866 48.1875 20.173C53.6484 22.0362 57.4805 24.8078 57.4805 26.9273C57.4805 29.2097 53.3906 32.156 47.543 34.0775ZM30 32.3307C32.9648 32.3307 35.3672 29.9434 35.3672 26.9971C35.3672 24.0509 32.9648 21.6636 30 21.6636C27.0352 21.6636 24.6328 24.0509 24.6328 26.9971C24.6328 29.9434 27.0352 32.3307 30 32.3307Z" fill="#262626"/>
</svg>
