<svg width="30" height="30" viewBox="0 0 30 30" fill="none" xmlns="http://www.w3.org/2000/svg">
<g clip-path="url(#clip0_15_135)">
<path d="M15 20.6777C11.8934 20.6777 9.42773 18.1594 9.42773 15.1055C9.42773 12.0516 11.8418 9.42772 15 9.42772C18.1582 9.42772 20.5723 11.9461 20.5723 15C20.5723 18.0539 18.1055 20.6777 15 20.6777ZM29.8418 9.66796L26.1387 15.0527L29.8388 20.3853C30.2099 20.92 29.9035 21.6592 29.2631 21.7752L22.8764 22.9295L21.7221 29.3162C21.6064 29.9566 20.8672 30.2631 20.3323 29.8918L15 26.1392L9.61523 29.8397C9.08056 30.2107 8.3414 29.9045 8.22539 29.2641L7.125 22.875L0.735942 21.7207C0.0956884 21.6094 -0.210698 20.8652 0.160317 20.3848L3.86074 15L0.160552 9.66737C-0.210464 9.13271 0.0958056 8.39355 0.736176 8.27753L7.12289 7.12323L8.27719 0.736515C8.39291 0.0960865 9.13207 -0.21036 9.66703 0.160891L15 3.86132L20.3326 0.161125C20.8674 -0.210009 21.607 0.0962601 21.7224 0.736631L22.8767 7.12335L29.2635 8.27765C29.9062 8.39062 30.2109 9.13476 29.8418 9.66796ZM15 7.55272C10.858 7.55272 7.55273 10.9107 7.55273 15C7.55273 19.142 10.9107 22.4473 15 22.4473C19.0892 22.4473 22.4473 19.0898 22.4473 15C22.4473 10.8574 19.1426 7.55272 15 7.55272Z" fill="#FAFAFA"/>
</g>
<defs>
<clipPath id="clip0_15_135">
<rect width="30" height="30" fill="white" transform="matrix(1 0 0 -1 0 30)"/>
</clipPath>
</defs>
</svg>
