<svg width="60" height="60" viewBox="0 0 60 60" fill="none" xmlns="http://www.w3.org/2000/svg">
<path d="M4.49824 0.168106C2.37798 0.683594 0.585709 2.53467 0.14057 4.66692C-0.0468567 5.5456 -0.0468567 54.4468 0.14057 55.3255C0.597423 57.5163 2.4834 59.4025 4.67396 59.8594C5.55252 60.0469 54.4475 60.0469 55.326 59.8594C56.4038 59.6368 57.3995 59.0745 58.2429 58.2427C59.0746 57.3991 59.6369 56.4033 59.8594 55.3255C60.0469 54.4468 60.0469 5.5456 59.8594 4.66692C59.4026 2.47609 57.5166 0.58987 55.326 0.132957C54.3772 -0.0662079 5.32995 -0.0310593 4.49824 0.168106ZM51.2027 28.1685C51.7532 28.274 52.5849 28.4731 53.0535 28.602L53.8969 28.8598V31.5895V34.331L53.1706 33.9209C50.2538 32.3276 45.8961 32.1167 44.1742 33.4875C43.6939 33.8741 43.237 34.7059 43.237 35.2097C43.2487 35.7369 43.6236 36.4632 44.1624 36.9904C44.7599 37.5645 45.7439 38.1151 47.8055 39.0407C49.9375 39.9896 50.8981 40.4817 51.6947 41.0206C53.1706 42.0282 54.2835 43.4458 54.7521 44.9337C55.1269 46.1169 55.1152 48.4484 54.7521 49.6199C53.8852 52.338 51.8118 53.9664 48.2624 54.728C47.2433 54.9505 46.6576 54.9974 44.6427 54.9974C41.7142 55.0091 39.8399 54.7162 37.8954 53.9313L37.1456 53.6384V50.7212C37.1456 49.1161 37.1574 47.804 37.1808 47.804C37.2042 47.804 37.5088 48.0149 37.8602 48.2843C38.7271 48.9404 40.4022 49.7254 41.597 50.0534C42.4405 50.276 42.8739 50.3229 44.4084 50.3229C46.025 50.3111 46.2944 50.2877 46.9036 50.0417C47.747 49.7136 48.3561 49.1864 48.6373 48.5655C48.9301 47.9446 48.9067 47.5111 48.5787 46.8082C48.0515 45.66 46.9856 44.9337 43.811 43.5746C41.7493 42.696 40.859 42.2039 39.7579 41.3369C37.9656 39.9311 37.0285 37.9628 37.0285 35.6197C37.0285 31.5778 39.8165 28.8832 44.8301 28.0631C46.1773 27.8405 49.7852 27.9108 51.2027 28.1685ZM34.8028 30.8749V33.2766H31.0543H27.3057V43.9964V54.7162H24.3186H21.3315V43.9964V33.2766H17.583H13.8344V30.8749V28.4731H24.3186H34.8028V30.8749Z" fill="#262626"/>
</svg>
