<svg width="60" height="36" viewBox="0 0 60 36" fill="none" xmlns="http://www.w3.org/2000/svg">
<path fill-rule="evenodd" clip-rule="evenodd" d="M30 0C21.999 0 17.001 3.99899 15 12C18 8.00101 21.501 6.50101 25.5 7.5C27.783 8.07042 29.415 9.72736 31.218 11.5594C34.161 14.5443 37.566 18 45 18C53.001 18 57.999 14.001 60 6C57 9.99899 53.502 11.499 49.5 10.5C47.217 9.92958 45.585 8.27264 43.779 6.44064C40.839 3.45272 37.437 0 30 0ZM15 18C6.999 18 2.001 21.999 0 30C3 25.998 6.501 24.501 10.5 25.5C12.783 26.0704 14.415 27.7274 16.221 29.5594C19.161 32.5443 22.566 36 30.003 36C38.004 36 43.002 32.001 45.003 24C42.003 27.999 38.502 29.499 34.503 28.5C32.22 27.9296 30.588 26.2726 28.785 24.4406C25.839 21.4557 22.434 18 15 18Z" fill="#262626"/>
</svg>
