<svg width="21" height="20" viewBox="0 0 21 20" fill="none" xmlns="http://www.w3.org/2000/svg">
<path d="M17.3378 2.90625C15.4672 1.03125 12.9762 0 10.3288 0C4.86456 0 0.418134 4.44643 0.418134 9.91071C0.418134 11.6563 0.873492 13.3616 1.73956 14.8661L0.333313 20L5.58778 18.6205C7.03421 19.4107 8.66367 19.8259 10.3244 19.8259H10.3288C15.7887 19.8259 20.3333 15.3795 20.3333 9.91518C20.3333 7.26786 19.2083 4.78125 17.3378 2.90625V2.90625ZM10.3288 18.1563C8.84671 18.1563 7.39581 17.7589 6.13242 17.0089L5.83331 16.8304L2.71724 17.6473L3.5476 14.6071L3.35117 14.2946C2.52528 12.9821 2.09224 11.4688 2.09224 9.91071C2.09224 5.37054 5.78867 1.67411 10.3333 1.67411C12.5342 1.67411 14.6012 2.53125 16.1547 4.08929C17.7083 5.64732 18.6637 7.71429 18.6592 9.91518C18.6592 14.4598 14.869 18.1563 10.3288 18.1563V18.1563ZM14.8467 11.9866C14.6012 11.8616 13.3824 11.2634 13.1547 11.183C12.9271 11.0982 12.7619 11.058 12.5967 11.308C12.4315 11.558 11.9583 12.1116 11.811 12.2813C11.6681 12.4464 11.5208 12.4688 11.2753 12.3438C9.81992 11.6161 8.86456 11.0446 7.90474 9.39732C7.65028 8.95982 8.15921 8.99107 8.63242 8.04464C8.71278 7.87946 8.6726 7.73661 8.6101 7.61161C8.5476 7.48661 8.05206 6.26786 7.84671 5.77232C7.64581 5.29018 7.44046 5.35714 7.28867 5.34821C7.14581 5.33929 6.98063 5.33929 6.81546 5.33929C6.65028 5.33929 6.38242 5.40179 6.15474 5.64732C5.92706 5.89732 5.28867 6.49554 5.28867 7.71429C5.28867 8.93304 6.17706 10.1116 6.2976 10.2768C6.4226 10.442 8.04313 12.942 10.5297 14.0179C12.1012 14.6964 12.7172 14.7545 13.503 14.6384C13.9806 14.567 14.9672 14.0402 15.1726 13.4598C15.378 12.8795 15.378 12.3839 15.3155 12.2813C15.2574 12.1696 15.0922 12.1071 14.8467 11.9866Z" fill="#262626"/>
</svg>
